<svg width="24" height="24" viewBox="0 0 24 24" fill="none" xmlns="http://www.w3.org/2000/svg">
<path fill-rule="evenodd" clip-rule="evenodd" d="M0 12C0 5.364 5.364 0 12 0C18.636 0 24 5.364 24 12C24 18.636 18.636 24 12 24C5.364 24 0 18.636 0 12ZM15.4679 17.16C15.9359 17.628 16.6919 17.628 17.1599 17.16C17.6159 16.692 17.6159 15.924 17.1599 15.468L13.6919 12L17.1599 8.53197C17.6279 8.06396 17.6279 7.30796 17.1599 6.83996C16.6919 6.37196 15.9359 6.37196 15.4679 6.83996L11.9999 10.308L8.53195 6.83996C8.06395 6.37196 7.30795 6.37196 6.83995 6.83996C6.61524 7.06416 6.48897 7.36854 6.48897 7.68597C6.48897 8.00339 6.61524 8.30777 6.83995 8.53197L10.3079 12L6.83995 15.468C6.61524 15.6922 6.48897 15.9965 6.48897 16.314C6.48897 16.6314 6.61524 16.9358 6.83995 17.16C7.30795 17.628 8.06395 17.628 8.53195 17.16L11.9999 13.692L15.4679 17.16Z" fill="#B5B5B5"/>
</svg>
